<svg width="175" height="175" viewBox="0 0 175 175" fill="none" xmlns="http://www.w3.org/2000/svg">
<g clip-path="url(#clip0_93_5)">
<path d="M0 53.03H2.18C9.04 53.03 15.7 51.69 21.97 49.03C28.03 46.47 33.46 42.8 38.13 38.13C42.8 33.46 46.47 28.02 49.03 21.97C51.68 15.7 53.03 9.04 53.03 2.18V0H0V53.03Z" fill="white"/>
<path d="M38.2 87.74C33.55 83.09 28.13 79.44 22.1 76.89C15.85 74.25 9.22 72.91 2.38 72.91H0.199997V123.56C0.199997 130.4 1.54 137.03 4.18 143.28C6.73 149.31 10.38 154.73 15.03 159.38C19.68 164.03 25.1 167.68 31.13 170.23C37.38 172.87 44.01 174.21 50.85 174.21H53.03V123.56C53.03 116.72 51.69 110.09 49.05 103.84C46.5 97.81 42.85 92.39 38.2 87.74Z" fill="white"/>
<path d="M103.96 76.9C97.9 79.46 92.47 83.13 87.8 87.8C83.13 92.47 79.46 97.91 76.9 103.96C74.25 110.23 72.9 116.89 72.9 123.75V174.2H125.73V125.73H174.2V72.9H123.75C116.89 72.9 110.23 74.24 103.96 76.9Z" fill="white"/>
<path d="M170.23 31.13C167.68 25.1 164.03 19.68 159.38 15.03C154.73 10.38 149.31 6.73001 143.28 4.18001C137.03 1.54001 130.4 0.200012 123.56 0.200012H72.91V2.38001C72.91 9.22001 74.25 15.85 76.89 22.1C79.44 28.13 83.09 33.55 87.74 38.2C92.39 42.85 97.81 46.5 103.84 49.05C110.09 51.69 116.72 53.03 123.56 53.03H174.21V50.85C174.21 44.01 172.87 37.38 170.23 31.13Z" fill="white"/>
</g>
<defs>
<clipPath id="clip0_93_5">
<rect width="174.21" height="174.21" fill="white"/>
</clipPath>
</defs>
</svg>
